<?xml version="1.0" encoding="UTF-8"?>
<!DOCTYPE svg PUBLIC "-//W3C//DTD SVG 1.1//EN" "http://www.w3.org/Graphics/SVG/1.1/DTD/svg11.dtd">
<svg width="50" height="44" viewBox="0 0 200 176" fill="none" xmlns="http://www.w3.org/2000/svg">
<path fill-rule="evenodd" clip-rule="evenodd" fill="#000" d="M54.7251 0H145.274C148.846 0 152.147 1.90594 153.934 4.99989L198.659 82.4643C200.436 85.5411 200.446 89.3295 198.687 92.4162L153.924 170.952C152.145 174.073 148.829 176 145.236 176H54.7623C51.1698 176 47.8533 174.073 46.0744 170.952L1.31185 92.4162C-0.447454 89.3295 -0.436899 85.5411 1.33957 82.4643L46.0649 4.9999C47.8513 1.90595 51.1525 0 54.7251 0ZM94.1093 60.923C95.4936 60.923 96.6158 62.0453 96.6158 63.4298V111.893C96.6158 113.278 95.4936 114.4 94.1093 114.4H62.3606C62.3232 114.4 62.2859 114.399 62.2489 114.398C62.1471 114.399 62.0451 114.4 61.9428 114.4C51.5607 114.4 43.1443 105.983 43.1443 95.5995V79.7235C43.1443 69.3403 51.5607 60.923 61.9428 60.923C62.0451 60.923 62.1471 60.9239 62.2489 60.9255C62.2859 60.9239 62.3232 60.923 62.3606 60.923H94.1093ZM80.8589 75.5457C81.4861 75.5457 81.9946 76.0542 81.9946 76.6816V98.6416C81.9946 99.2689 81.4861 99.7774 80.8589 99.7774H66.4727L66.4522 99.7773C66.4421 99.7771 66.4321 99.7768 66.4221 99.7763C66.376 99.7771 66.3298 99.7774 66.2834 99.7774C61.579 99.7774 57.7653 95.9634 57.7653 91.2585V84.0647C57.7653 79.3598 61.579 75.5457 66.2834 75.5457C66.3298 75.5457 66.376 75.5461 66.4221 75.5468C66.4389 75.5461 66.4558 75.5457 66.4727 75.5457H80.8589ZM105.891 60.923C104.506 60.923 103.384 62.0453 103.384 63.4298V111.893C103.384 113.278 104.506 114.4 105.891 114.4H137.639C137.655 114.4 137.671 114.4 137.686 114.4C137.708 114.399 137.73 114.398 137.751 114.398C137.809 114.398 137.866 114.399 137.924 114.399C137.968 114.4 138.013 114.4 138.057 114.4C148.439 114.4 156.856 105.983 156.856 95.5995V79.7235C156.856 69.3403 148.439 60.923 138.057 60.923C137.955 60.923 137.853 60.9239 137.751 60.9255C137.714 60.9239 137.677 60.923 137.639 60.923H105.891ZM119.141 75.5457C118.514 75.5457 118.005 76.0542 118.005 76.6816V98.6416C118.005 99.2689 118.514 99.7774 119.141 99.7774H133.527C133.537 99.7774 133.548 99.7773 133.558 99.777C133.564 99.7769 133.571 99.7766 133.578 99.7763L133.646 99.7771L133.717 99.7774C138.421 99.7774 142.235 95.9634 142.235 91.2585V84.0647C142.235 79.3598 138.421 75.5457 133.717 75.5457C133.67 75.5457 133.624 75.5461 133.578 75.5468C133.568 75.5464 133.558 75.5461 133.549 75.5459L133.527 75.5457H119.141Z"/>
</svg>
