<svg xmlns="http://www.w3.org/2000/svg" height="590pt" viewBox="-18 -42 590.668 590" width="590pt"><path d="M545.797 102.441L281.41-.527a12.468 12.468 0 0 0-9.062 0L7.957 102.44a12.485 12.485 0 0 0 0 23.266l264.39 102.973a12.508 12.508 0 0 0 9.063 0l264.387-102.973a12.483 12.483 0 0 0 7.953-11.633 12.48 12.48 0 0 0-7.953-11.633zM276.879 203.652l-230-89.578 230-89.574 229.992 89.574zm0 0"/><path d="M545.91 240.023l-111.277-44.582a12.49 12.49 0 0 0-12.426 1.641 12.49 12.49 0 0 0-4.738 11.606 12.475 12.475 0 0 0 7.726 9.863l.153.066 81.945 32.828-230.414 89.743-230.645-89.829 84.946-34.543c6.402-2.566 9.511-9.828 6.949-16.23-2.566-6.399-9.832-9.512-16.234-6.945l-.122.047L7.781 240.047A12.481 12.481 0 0 0 0 251.699a12.478 12.478 0 0 0 7.953 11.543l264.39 102.969a12.458 12.458 0 0 0 9.06 0l264.39-102.969a12.482 12.482 0 0 0 .113-23.219zm0 0"/><path d="M545.836 377.535l-108.258-42.601c-6.398-2.582-13.668.515-16.25 6.914-2.574 6.39.524 13.66 6.918 16.242l.188.07 78.593 30.93-230.148 89.629-230.59-89.805L130.5 354.79c6.395-2.59 9.469-9.867 6.883-16.258-2.59-6.386-9.867-9.469-16.258-6.883L7.797 377.578A12.48 12.48 0 0 0 0 389.234a12.49 12.49 0 0 0 7.953 11.547l264.39 102.969a12.458 12.458 0 0 0 9.06 0l264.39-102.969a12.488 12.488 0 0 0 7.953-11.613 12.476 12.476 0 0 0-7.914-11.637zm0 0"/></svg>