<svg xmlns="http://www.w3.org/2000/svg" viewBox="0 0 511.997 511.997"><path d="M478.74 8.403a12.837 12.837 0 0 0-9.737-8.226c-4.463-.725-9.054.802-11.998 4.275-25.225 29.423-83.379 39.68-144.956 50.551C200.477 74.698 61.631 99.231 44.368 254.564c-5.18 46.686 6.153 91.529 31.829 128.777-29.278 29.628-54.059 66.338-69.623 111.71-2.287 6.673 1.271 13.978 7.962 16.247 1.382.478 2.782.7 4.156.7 5.316 0 10.291-3.328 12.109-8.653 14.012-40.866 35.712-73.532 61.039-100.096 41.054 45.338 101.359 70.349 170.061 70.349 83.268 0 147.046-30.78 189.568-91.503C529.718 270.384 509.733 93.599 478.74 8.403zm-48.222 359.014c-37.453 53.478-94.182 80.58-168.61 80.58-61.67 0-115.507-22.178-151.646-62.455 32.546-28.51 69.248-48.196 104.149-61.133.179-.051.367-.026.546-.094 2.253-.794 4.275-1.749 6.494-2.569 55.39-19.311 104.533-22.221 121.156-18.432 6.886 1.476 13.739-2.799 15.275-9.702 1.553-6.903-2.799-13.747-9.702-15.3-8.789-1.954-21.658-2.44-36.83-1.527 45.875-30.942 80.341-69.897 102.878-116.557 3.072-6.374.41-14.029-5.965-17.101-6.323-3.072-14.003-.401-17.092 5.948-32.64 67.584-90.65 115.908-176.623 147.9 14.012-30.438 17.732-67.14.205-102.187-3.166-6.298-10.863-8.9-17.178-5.726-6.323 3.174-8.892 10.854-5.726 17.178 22.306 44.612-.401 87.782-19.635 109.218-26.496 12.911-52.762 29.508-76.945 50.287-20.71-31.599-29.815-69.197-25.463-108.331C84.961 121.102 202.67 100.332 316.496 80.228c56.491-9.975 110.302-19.473 144.256-44.655 25.438 85.282 37.257 235.46-30.234 331.844z"/></svg>