<svg width="50" height="44" viewBox="0 0 200 176" fill="none" xmlns="http://www.w3.org/2000/svg"><path fill-rule="evenodd" clip-rule="evenodd" fill="#000" d="M54.725 0h90.549c3.572 0 6.873 1.906 8.66 5l44.725 77.464a10 10 0 0 1 .028 9.952l-44.763 78.536a10 10 0 0 1-8.688 5.048H54.762a10 10 0 0 1-8.688-5.048L1.312 92.416a10 10 0 0 1 .028-9.952L46.065 5a10 10 0 0 1 8.66-5zM94.11 60.923a2.507 2.507 0 0 1 2.507 2.507v48.463a2.506 2.506 0 0 1-2.507 2.507H62.361l-.112-.002-.306.002c-10.382 0-18.799-8.417-18.799-18.8V79.724c0-10.384 8.417-18.801 18.799-18.801.102 0 .204 0 .306.002l.112-.002h31.748zM80.86 75.546c.627 0 1.136.508 1.136 1.136v21.96c0 .627-.509 1.135-1.136 1.135H66.283a8.518 8.518 0 0 1-8.518-8.519v-7.193a8.519 8.519 0 0 1 8.708-8.52h14.386zm25.032-14.623a2.507 2.507 0 0 0-2.507 2.507v48.463a2.506 2.506 0 0 0 2.507 2.507h31.795l.065-.002.173.001.133.001c10.382 0 18.799-8.417 18.799-18.8V79.724c0-10.384-8.417-18.801-18.799-18.801-.102 0-.204 0-.306.002a2.58 2.58 0 0 0-.112-.002h-31.748zm13.25 14.623c-.627 0-1.136.508-1.136 1.136v21.96c0 .627.509 1.135 1.136 1.135h14.386a1.068 1.068 0 0 0 .051 0h.139a8.519 8.519 0 0 0 8.518-8.519v-7.193a8.519 8.519 0 0 0-8.686-8.52h-14.408z"/></svg>